<svg width="64" height="64" viewBox="0 0 64 64" fill="none" xmlns="http://www.w3.org/2000/svg">
<mask id="mask0_6063_23137" style="mask-type:alpha" maskUnits="userSpaceOnUse" x="14" y="14" width="35" height="36">
<path fill-rule="evenodd" clip-rule="evenodd" d="M40.4 29C40.4 35.296 35.296 40.4 29 40.4C22.704 40.4 17.6 35.296 17.6 29C17.6 22.704 22.704 17.6 29 17.6C35.296 17.6 40.4 22.704 40.4 29ZM37.6856 41.2309C35.2346 42.9746 32.2371 44 29 44C20.7157 44 14 37.2843 14 29C14 20.7157 20.7157 14 29 14C37.2843 14 44 20.7157 44 29C44 32.7487 42.6249 36.1762 40.3515 38.8057L48.273 46.7272C48.9759 47.4301 48.9759 48.5698 48.273 49.2727C47.57 49.9757 46.4303 49.9757 45.7274 49.2727L37.6856 41.2309Z" fill="#1A1A1A"/>
</mask>
<g mask="url(#mask0_6063_23137)">
<rect width="64" height="64" fill="#2F8728"/>
</g>
</svg>
