<svg width="40" height="40" viewBox="0 0 40 40" fill="none" xmlns="http://www.w3.org/2000/svg">
<mask id="mask0_17_260" style="mask-type:alpha" maskUnits="userSpaceOnUse" x="6" y="7" width="26" height="26">
<path d="M19.3737 7.5C22.6878 7.50378 25.8653 8.82166 28.2087 11.165C30.5521 13.5084 31.8699 16.686 31.8737 20C31.8696 23.3139 30.5511 26.4908 28.2077 28.834C25.8643 31.1771 22.6876 32.4952 19.3737 32.499C16.06 32.4949 12.8829 31.1771 10.5397 28.834C8.19665 26.4909 6.87878 23.3137 6.87469 20C6.87851 16.6862 8.19665 13.5094 10.5397 11.166C12.8829 8.82263 16.0598 7.50408 19.3737 7.5ZM19.3737 9.61426C16.6204 9.6174 13.9808 10.7123 12.0339 12.6592C10.087 14.6061 8.99209 17.2457 8.98895 19.999C8.9921 22.7524 10.087 25.392 12.0339 27.3389C13.9808 29.2858 16.6204 30.3806 19.3737 30.3838C22.1271 30.3806 24.7667 29.2858 26.7136 27.3389C28.6605 25.392 29.7553 22.7524 29.7585 19.999C29.755 17.246 28.6602 14.6068 26.7136 12.6602C24.7667 10.7135 22.1269 9.61838 19.3737 9.61523V9.61426ZM20.3376 14.6826C21.2608 14.7363 22.1602 14.9236 23.0339 15.2441L23.4089 15.3818L22.6765 17.0459L22.3483 16.9287C21.674 16.6887 21.0035 16.5326 20.3376 16.46V19.0137C21.0719 19.2339 21.6523 19.4556 22.0651 19.6826C22.5332 19.937 22.9069 20.25 23.1638 20.6289C23.4252 21.0026 23.5445 21.452 23.5446 21.9541C23.5446 22.7583 23.2043 23.4261 22.5544 23.9316C21.9865 24.3732 21.2393 24.6532 20.3376 24.793V26.5732H18.5192V24.9014C18.0264 24.8873 17.5364 24.846 17.0505 24.7764L17.0475 24.7754C16.4397 24.6832 15.9281 24.5558 15.5241 24.3848L15.2956 24.2871V22.3164L15.8112 22.5264C16.2255 22.6944 16.7292 22.8398 17.3249 22.9609H17.321L17.3278 22.9619L17.3249 22.9609C17.765 23.0423 18.1631 23.093 18.5192 23.1143V20.4941C17.5112 20.1865 16.7423 19.8182 16.2595 19.3672C15.7198 18.863 15.4528 18.2131 15.4528 17.4492C15.4529 16.6578 15.7927 16.0059 16.4401 15.5205L16.4411 15.5195C16.9292 15.1571 17.525 14.914 18.2165 14.7783L18.5192 14.7266V13.3242H20.3376V14.6826ZM20.3376 23.3652C21.2864 23.1717 21.7604 22.7341 21.7604 22.0518C21.7604 21.6932 21.6369 21.4037 21.3884 21.1846C21.1911 21.0027 20.8405 20.8232 20.3376 20.6445V23.3652ZM18.5192 16.1543C18.1574 16.2421 17.867 16.3719 17.6501 16.5449C17.3684 16.7741 17.2282 17.071 17.2282 17.4346C17.2282 17.7931 17.3527 18.0892 17.6013 18.3232C17.7957 18.5063 18.1019 18.6791 18.5192 18.8408V16.1543Z" fill="white"/>
</mask>
<g mask="url(#mask0_17_260)">
<rect width="40" height="40" fill="#2F8728"/>
</g>
</svg>
