<svg width="64" height="64" viewBox="0 0 64 64" fill="none" xmlns="http://www.w3.org/2000/svg">
<mask id="mask0_6063_23140" style="mask-type:alpha" maskUnits="userSpaceOnUse" x="15" y="15" width="35" height="34">
<path fill-rule="evenodd" clip-rule="evenodd" d="M24.3473 15C23.8843 15 23.4403 15.1839 23.113 15.5113C22.7856 15.8386 22.6017 16.2826 22.6017 16.7456V16.9775L20.0322 16.9773L20.0197 16.9777C18.6498 17.0203 17.3526 17.6041 16.4121 18.6011C15.4729 19.5967 14.9659 20.9236 15.0018 22.2917V43.081C14.9659 44.4491 15.4729 45.7759 16.4121 46.7716C17.3526 47.7686 18.6498 48.3525 20.0197 48.3951L44.4162 48.3953L44.4286 48.3949C45.7986 48.3523 47.0958 47.7686 48.0363 46.7716C48.9755 45.7759 49.4824 44.4491 49.4466 43.081V22.2917C49.4824 20.9236 48.9755 19.5967 48.0363 18.6011C47.0958 17.6041 45.7986 17.0201 44.4286 16.9775H41.7072V16.7456C41.7072 16.2826 41.5233 15.8386 41.1959 15.5113C40.8685 15.1839 40.4245 15 39.9616 15C39.4986 15 39.0546 15.1839 38.7272 15.5113C38.3999 15.8386 38.216 16.2826 38.216 16.7456V16.9775H26.0929V16.7456C26.0929 16.2826 25.909 15.8386 25.5816 15.5113C25.2543 15.1839 24.8103 15 24.3473 15ZM18.9712 21.1087C19.2458 20.7946 19.632 20.6001 20.0475 20.5663H22.6017V21.0325C22.5959 21.4997 22.7752 21.9502 23.1005 22.2856C23.4257 22.6208 23.8714 22.8165 24.3408 22.8242L24.3538 22.8239C24.822 22.8163 25.2681 22.6233 25.5941 22.2872C25.9194 21.9518 26.0987 21.5013 26.0929 21.0341V20.5663H38.216V21.0325C38.2101 21.4997 38.3895 21.9502 38.7148 22.2856C39.04 22.6208 39.4857 22.8165 39.9551 22.8242L39.9681 22.8239C40.4363 22.8163 40.8823 22.6233 41.2084 22.2872C41.5337 21.9518 41.713 21.5013 41.7072 21.0341V20.5663H44.3993C44.8148 20.6001 45.201 20.7946 45.4756 21.1087C45.7531 21.4263 45.8942 21.8406 45.8682 22.2616L45.8674 22.274V27.9585H18.5794V22.274L18.5786 22.2616C18.5526 21.8406 18.6936 21.4263 18.9712 21.1087ZM18.5794 43.0971V31.5489H45.8674V43.0971L45.8682 43.1094C45.8942 43.5304 45.7531 43.9447 45.4756 44.2623C45.201 44.5765 44.8148 44.771 44.3993 44.8047H20.0475C19.632 44.771 19.2458 44.5765 18.9712 44.2623C18.6936 43.9447 18.5526 43.5304 18.5786 43.1094L18.5794 43.0971Z" fill="black"/>
</mask>
<g mask="url(#mask0_6063_23140)">
<rect width="64" height="64" fill="#2F8728"/>
</g>
</svg>
