<svg width="179" height="32" viewBox="0 0 179 32" fill="none" xmlns="http://www.w3.org/2000/svg">
<mask id="path-1-inside-1_31_330" fill="white">
<path d="M0 8H74.6279V24H0V8Z"/>
</mask>
<path d="M74.6279 24V23H0V24V25H74.6279V24Z" fill="#1E6BFF" mask="url(#path-1-inside-1_31_330)"/>
<path d="M49.0099 12.654L49.7239 12.038C50.0693 12.1967 50.4286 12.3833 50.8019 12.598C51.1846 12.8127 51.5393 13.032 51.8659 13.256C52.2019 13.48 52.4773 13.69 52.6919 13.886L51.9499 14.572C51.7446 14.376 51.4786 14.166 51.1519 13.942C50.8253 13.7087 50.4753 13.48 50.1019 13.256C49.7286 13.0227 49.3646 12.822 49.0099 12.654ZM55.4919 10.736H55.7019L55.8839 10.694L56.5559 11.1C56.0986 11.912 55.5153 12.6493 54.8059 13.312C54.0966 13.9653 53.3033 14.544 52.4259 15.048C51.5579 15.5427 50.6479 15.9673 49.6959 16.322C48.7533 16.6673 47.8199 16.9427 46.8959 17.148C46.8493 17.008 46.7793 16.8493 46.6859 16.672C46.5926 16.4853 46.4993 16.3313 46.4059 16.21C47.2926 16.0513 48.1886 15.818 49.0939 15.51C49.9993 15.1927 50.8673 14.81 51.6979 14.362C52.5286 13.9047 53.2706 13.3867 53.9239 12.808C54.5866 12.2293 55.1093 11.5947 55.4919 10.904V10.736ZM50.8019 10.736H55.7439V11.632H50.8019V10.736ZM51.8379 9.53201L53.0279 9.78401C52.3746 10.5307 51.5673 11.24 50.6059 11.912C49.6539 12.584 48.5293 13.1813 47.2319 13.704C47.1853 13.62 47.1199 13.5267 47.0359 13.424C46.9519 13.3213 46.8633 13.228 46.7699 13.144C46.6766 13.0507 46.5879 12.976 46.5039 12.92C47.3533 12.6213 48.1186 12.2853 48.7999 11.912C49.4813 11.5387 50.0786 11.1467 50.5919 10.736C51.1053 10.3253 51.5206 9.92401 51.8379 9.53201ZM50.8019 17.778L51.5859 17.176C51.9499 17.3627 52.3279 17.582 52.7199 17.834C53.1213 18.0767 53.4946 18.3287 53.8399 18.59C54.1853 18.842 54.4699 19.0847 54.6939 19.318L53.8679 19.99C53.6626 19.7567 53.3873 19.514 53.0419 19.262C52.7059 19.0007 52.3419 18.7393 51.9499 18.478C51.5579 18.2167 51.1753 17.9833 50.8019 17.778ZM57.5219 15.636H57.7459L57.9419 15.594L58.6279 15.972C58.1799 16.9893 57.5873 17.8713 56.8499 18.618C56.1126 19.3647 55.2679 19.9947 54.3159 20.508C53.3639 21.012 52.3419 21.4227 51.2499 21.74C50.1673 22.0573 49.0566 22.3 47.9179 22.468C47.8806 22.328 47.8153 22.16 47.7219 21.964C47.6379 21.7773 47.5493 21.628 47.4559 21.516C48.5386 21.3853 49.5979 21.18 50.6339 20.9C51.6793 20.6107 52.6499 20.2373 53.5459 19.78C54.4513 19.3227 55.2446 18.7673 55.9259 18.114C56.6166 17.4513 57.1486 16.6813 57.5219 15.804V15.636ZM52.9859 15.636H57.8019V16.546H52.9859V15.636ZM54.1059 14.334L55.2819 14.6C54.5726 15.4213 53.6626 16.2007 52.5519 16.938C51.4413 17.6753 50.1159 18.3147 48.5759 18.856C48.5386 18.772 48.4779 18.6787 48.3939 18.576C48.3193 18.4733 48.2399 18.3753 48.1559 18.282C48.0813 18.1793 48.0066 18.1 47.9319 18.044C48.9119 17.7267 49.8033 17.3673 50.6059 16.966C51.4086 16.5647 52.1039 16.1353 52.6919 15.678C53.2799 15.2207 53.7513 14.7727 54.1059 14.334Z" fill="#1E6BFF"/>
<path d="M32.406 10.302H44.586V11.254H32.406V10.302ZM38.034 10.708H39.126V16.14C39.126 16.6813 39.084 17.2087 39 17.722C38.916 18.226 38.7527 18.7113 38.51 19.178C38.2673 19.6447 37.9127 20.0833 37.446 20.494C36.9793 20.9047 36.3633 21.2733 35.598 21.6C34.842 21.9267 33.904 22.2113 32.784 22.454C32.7467 22.37 32.6907 22.272 32.616 22.16C32.5413 22.048 32.462 21.9313 32.378 21.81C32.3033 21.698 32.2287 21.6047 32.154 21.53C33.246 21.3247 34.1513 21.082 34.87 20.802C35.5887 20.522 36.158 20.2093 36.578 19.864C37.0073 19.5093 37.3247 19.136 37.53 18.744C37.7353 18.3427 37.8707 17.9227 37.936 17.484C38.0013 17.0453 38.034 16.5927 38.034 16.126V10.708ZM34.688 15.566V16.994H42.668V15.566H34.688ZM34.688 13.326V14.726H42.668V13.326H34.688ZM33.68 12.444H43.718V17.862H33.68V12.444ZM35.024 17.988C35.472 18.6787 36.0087 19.2387 36.634 19.668C37.2593 20.0973 37.9827 20.4287 38.804 20.662C39.6347 20.8953 40.568 21.0633 41.604 21.166C42.64 21.2593 43.7927 21.3247 45.062 21.362C44.9687 21.4833 44.8753 21.642 44.782 21.838C44.698 22.034 44.642 22.2207 44.614 22.398C43.3167 22.342 42.1313 22.244 41.058 22.104C39.9847 21.9733 39.014 21.7633 38.146 21.474C37.278 21.194 36.508 20.802 35.836 20.298C35.164 19.794 34.5947 19.1453 34.128 18.352L35.024 17.988Z" fill="#1E6BFF"/>
<path d="M21.1359 15.79H29.2979V22.468H28.2479V16.63H22.1439V22.468H21.1359V15.79ZM18.3219 13.942H30.6699V14.81H18.3219V13.942ZM19.3439 12.052H29.8579V12.892H19.3439V12.052ZM21.8079 17.582H28.6819V18.324H21.8079V17.582ZM21.8079 19.304H28.6819V20.032H21.8079V19.304ZM21.7099 21.068H28.6819V21.908H21.7099V21.068ZM29.0599 9.672L29.7319 10.428C29.0786 10.5587 28.3366 10.6707 27.5059 10.764C26.6753 10.8573 25.7979 10.932 24.8739 10.988C23.9499 11.044 23.0166 11.0907 22.0739 11.128C21.1313 11.156 20.2259 11.17 19.3579 11.17C19.3486 11.058 19.3206 10.9227 19.2739 10.764C19.2366 10.6053 19.1946 10.47 19.1479 10.358C19.9973 10.3487 20.8839 10.33 21.8079 10.302C22.7413 10.274 23.6559 10.232 24.5519 10.176C25.4479 10.12 26.2833 10.05 27.0579 9.966C27.8326 9.882 28.4999 9.784 29.0599 9.672ZM23.3199 10.624L24.4119 10.862C24.0946 11.982 23.6839 13.074 23.1799 14.138C22.6853 15.1927 22.0646 16.1633 21.3179 17.05C20.5713 17.9367 19.6753 18.6927 18.6299 19.318C18.5833 19.2433 18.5179 19.1547 18.4339 19.052C18.3593 18.94 18.2799 18.8373 18.1959 18.744C18.1119 18.6507 18.0326 18.5667 17.9579 18.492C18.9566 17.9227 19.8059 17.2227 20.5059 16.392C21.2153 15.5613 21.7986 14.6513 22.2559 13.662C22.7133 12.6727 23.0679 11.66 23.3199 10.624Z" fill="#1E6BFF"/>
<path d="M7.626 18.268V19.444H13.296V18.268H7.626ZM7.626 16.392V17.54H13.296V16.392H7.626ZM6.59 15.636H14.388V20.2H6.59V15.636ZM4.294 11.338H16.712V12.262H4.294V11.338ZM9.936 9.56H10.972V15.202H9.936V9.56ZM9.334 11.618L10.202 11.968C9.894 12.416 9.53 12.8547 9.11 13.284C8.69 13.704 8.23267 14.1007 7.738 14.474C7.25267 14.838 6.74867 15.1693 6.226 15.468C5.71267 15.7667 5.19933 16.0187 4.686 16.224C4.63933 16.1307 4.574 16.0373 4.49 15.944C4.406 15.8413 4.322 15.7387 4.238 15.636C4.154 15.5333 4.07467 15.4493 4 15.384C4.49467 15.2067 4.99867 14.9873 5.512 14.726C6.02533 14.4553 6.52 14.1567 6.996 13.83C7.472 13.494 7.91067 13.1393 8.312 12.766C8.71333 12.3927 9.054 12.01 9.334 11.618ZM11.56 11.618C11.84 12.0007 12.1807 12.374 12.582 12.738C12.9927 13.102 13.4407 13.4427 13.926 13.76C14.4113 14.0773 14.9153 14.3667 15.438 14.628C15.9607 14.88 16.4787 15.0853 16.992 15.244C16.9173 15.3093 16.8333 15.3933 16.74 15.496C16.656 15.5987 16.572 15.706 16.488 15.818C16.4133 15.9207 16.348 16.0187 16.292 16.112C15.7693 15.916 15.2467 15.6733 14.724 15.384C14.2013 15.0947 13.6927 14.7727 13.198 14.418C12.7033 14.054 12.2413 13.6667 11.812 13.256C11.392 12.836 11.0233 12.4067 10.706 11.968L11.56 11.618ZM4.532 21.04H16.516V21.992H4.532V21.04Z" fill="#1E6BFF"/>
<path d="M65.7234 18.845L68.4385 16.3977C68.4985 16.3446 68.5462 16.2815 68.5787 16.212C68.6112 16.1425 68.6279 16.0679 68.6279 15.9926C68.6279 15.9173 68.6112 15.8427 68.5787 15.7732C68.5462 15.7037 68.4985 15.6406 68.4385 15.5876L65.7234 13.1687C65.6639 13.1153 65.5931 13.0728 65.515 13.0439C65.437 13.0149 65.3533 13 65.2688 13C65.1843 13 65.1006 13.0149 65.0225 13.0439C64.9445 13.0728 64.8737 13.1153 64.8141 13.1687C64.6949 13.2756 64.6279 13.4202 64.6279 13.5709C64.6279 13.7216 64.6949 13.8662 64.8141 13.9731L67.081 15.9926L64.8141 18.0121C64.6958 18.1184 64.6291 18.2618 64.6284 18.4114C64.6279 18.4865 64.6441 18.561 64.676 18.6305C64.7078 18.7 64.7548 18.7632 64.8141 18.8165C64.8715 18.8719 64.9407 18.9166 65.0176 18.948C65.0944 18.9794 65.1776 18.997 65.2621 18.9996C65.3467 19.0023 65.431 18.99 65.5101 18.9635C65.5893 18.9369 65.6618 18.8967 65.7234 18.845Z" fill="#1E6BFF"/>
<path d="M122.628 31.5C114.068 31.5 107.128 24.5604 107.128 16C107.128 7.43958 114.068 0.499998 122.628 0.499999C131.188 0.5 138.128 7.43959 138.128 16C138.128 24.5604 131.188 31.5 122.628 31.5Z" stroke="#B9DCFF"/>
<path d="M123.235 11.0212L119.162 15.3041C119.072 15.3969 119.001 15.5073 118.952 15.629C118.903 15.7506 118.878 15.8811 118.878 16.0129C118.878 16.1447 118.903 16.2752 118.952 16.3969C119.001 16.5185 119.072 16.6289 119.162 16.7217L123.235 20.9547C123.324 21.0483 123.43 21.1225 123.547 21.1732C123.664 21.2239 123.79 21.25 123.917 21.25C124.043 21.25 124.169 21.2239 124.286 21.1732C124.403 21.1225 124.509 21.0483 124.599 20.9547C124.778 20.7676 124.878 20.5146 124.878 20.2509C124.878 19.9871 124.778 19.7341 124.599 19.547L121.198 16.0129L124.599 12.4788C124.776 12.2928 124.876 12.0419 124.877 11.78C124.878 11.6486 124.854 11.5183 124.806 11.3967C124.758 11.2751 124.688 11.1644 124.599 11.0711C124.513 10.9742 124.409 10.896 124.293 10.841C124.178 10.786 124.053 10.7553 123.927 10.7506C123.8 10.746 123.673 10.7675 123.555 10.8139C123.436 10.8604 123.327 10.9308 123.235 11.0212Z" fill="#B9DCFF"/>
<path d="M162.628 0.5C171.188 0.5 178.128 7.43959 178.128 16C178.128 24.5604 171.188 31.5 162.628 31.5C154.068 31.5 147.128 24.5604 147.128 16C147.128 7.43959 154.068 0.5 162.628 0.5Z" stroke="#1E6BFF"/>
<path d="M162.021 20.9788L166.094 16.6959C166.184 16.6031 166.255 16.4927 166.304 16.371C166.353 16.2494 166.378 16.1189 166.378 15.9871C166.378 15.8553 166.353 15.7248 166.304 15.6031C166.255 15.4815 166.184 15.3711 166.094 15.2783L162.021 11.0453C161.932 10.9517 161.826 10.8775 161.709 10.8268C161.592 10.7761 161.466 10.75 161.339 10.75C161.212 10.75 161.087 10.7761 160.97 10.8268C160.853 10.8775 160.747 10.9517 160.657 11.0453C160.478 11.2324 160.378 11.4854 160.378 11.7491C160.378 12.0129 160.478 12.2659 160.657 12.453L164.057 15.9871L160.657 19.5212C160.48 19.7072 160.38 19.9581 160.379 20.22C160.378 20.3514 160.402 20.4817 160.45 20.6033C160.498 20.7249 160.568 20.8356 160.657 20.9289C160.743 21.0258 160.847 21.104 160.962 21.159C161.078 21.214 161.202 21.2447 161.329 21.2494C161.456 21.254 161.582 21.2325 161.701 21.1861C161.82 21.1396 161.929 21.0692 162.021 20.9788Z" fill="#1E6BFF"/>
</svg>
