<svg width="78" height="78" viewBox="0 0 78 78" fill="none" xmlns="http://www.w3.org/2000/svg">
<path fill-rule="evenodd" clip-rule="evenodd" d="M78 0C78 14.3594 66.3594 26 52 26C37.6406 26 26 37.6406 26 52C26 66.3594 14.3594 78 -3.40949e-06 78L78 78L78 0Z" fill="#D8D8D8"/>
<path d="M60 42C69.9411 42 78 50.0589 78 60C78 69.9411 69.9411 78 60 78C50.0589 78 42 69.9411 42 60C42 50.0589 50.0589 42 60 42Z" fill="white"/>
<path fill-rule="evenodd" clip-rule="evenodd" d="M63.7342 64.8245L57.3714 64.8618C57.2321 64.8576 57.095 64.8258 56.968 64.7682C56.8411 64.7107 56.7268 64.6286 56.6318 64.5266C56.5368 64.4247 56.4629 64.3049 56.4144 64.1742C56.366 64.0435 56.3439 63.9045 56.3494 63.7653C56.35 63.6264 56.378 63.4891 56.4317 63.3611C56.4855 63.2331 56.564 63.1169 56.6627 63.0193C56.8592 62.8245 57.1245 62.7146 57.4012 62.7135L61.3555 62.7135L55.3307 56.6887C54.9187 56.2767 54.9187 55.6088 55.3307 55.1968C55.7427 54.7849 56.4106 54.7849 56.8226 55.1968L62.6824 61.0567L62.6824 57.4323C62.6833 57.1536 62.7943 56.8866 62.9914 56.6895C63.1885 56.4924 63.4555 56.3813 63.7342 56.3805C63.8735 56.3799 64.0115 56.407 64.1402 56.46C64.269 56.513 64.386 56.591 64.4845 56.6895C64.5829 56.788 64.6609 56.905 64.714 57.0337C64.767 57.1625 64.794 57.3005 64.7934 57.4397L64.7934 63.7653C64.794 63.9045 64.767 64.0425 64.714 64.1713C64.6609 64.3001 64.5829 64.4171 64.4845 64.5155C64.386 64.614 64.269 64.692 64.1402 64.745C64.0115 64.7981 63.8735 64.8251 63.7342 64.8245Z" fill="black"/>
</svg>
