<svg width="66" height="65" viewBox="0 0 66 65" fill="none" xmlns="http://www.w3.org/2000/svg">
<mask id="mask0_34_357" style="mask-type:alpha" maskUnits="userSpaceOnUse" x="14" y="15" width="44" height="42">
<path fill-rule="evenodd" clip-rule="evenodd" d="M18.5419 20.9911C18.5557 19.7751 19.5843 18.8005 20.8383 18.8154L33.7779 18.9694C34.3699 18.9764 34.9356 19.2076 35.3543 19.6136L53.1167 36.8378C54.0027 37.6969 54.0027 39.0899 53.1167 39.949L39.991 52.677C39.105 53.5361 37.6685 53.5361 36.7825 52.677L19.0598 35.4914C18.6282 35.0728 18.3887 34.5034 18.3954 33.9115L18.5419 20.9911ZM20.8839 15.2157C17.5778 15.1764 14.8659 17.7456 14.8296 20.9516L14.6832 33.872C14.6655 35.4323 15.2968 36.9336 16.4347 38.0369L34.1573 55.2226C36.4932 57.4876 40.2803 57.4876 42.6161 55.2226L55.7418 42.4946C58.0777 40.2296 58.0777 36.5572 55.7419 34.2922L37.9794 17.068C36.8757 15.9977 35.3842 15.3882 33.8234 15.3696L20.8839 15.2157ZM30.7298 30.2616C32.1394 28.8948 32.1394 26.6787 30.7298 25.3119C29.3203 23.9451 27.0349 23.9451 25.6254 25.3119C24.2158 26.6787 24.2158 28.8948 25.6254 30.2617C27.0349 31.6285 29.3203 31.6285 30.7298 30.2616Z" fill="#1A1A1A"/>
</mask>
<g mask="url(#mask0_34_357)">
<rect y="0.5" width="66" height="64" fill="#2F8728"/>
</g>
</svg>
