<svg width="40" height="40" viewBox="0 0 40 40" fill="none" xmlns="http://www.w3.org/2000/svg">
<mask id="mask0_17_261" style="mask-type:alpha" maskUnits="userSpaceOnUse" x="6" y="8" width="28" height="24">
<path d="M28.7188 8.75C29.5783 8.75 30.382 9.21646 30.792 9.9834L33.2148 14.084C33.2262 14.1031 33.2369 14.1228 33.2471 14.1426C33.4128 14.4655 33.5 14.8235 33.5 15.1875V16.375C33.5 17.9426 32.8605 19.4397 31.7324 20.5391C31.6772 20.5929 31.6196 20.6448 31.5625 20.6963V28.3604C31.5624 30.2324 30.0514 31.75 28.1875 31.75H22.8125V26.335H17.8125V31.75H12.4375C10.5736 31.75 9.06261 30.2324 9.0625 28.3604V20.9111C8.91742 20.7942 8.77698 20.67 8.64258 20.5391C7.51445 19.4397 6.875 17.9426 6.875 16.375V15.1875C6.875 14.8235 6.96221 14.4655 7.12793 14.1426C7.13809 14.1228 7.14884 14.1031 7.16016 14.084L9.58301 9.9834C9.99299 9.21646 10.7967 8.75 11.6562 8.75H28.7188ZM23.8438 21.0332C22.7988 21.8196 21.5139 22.25 20.1875 22.25C18.8611 22.25 17.5762 21.8196 16.5312 21.0332C15.4863 21.8196 14.2014 22.25 12.875 22.25C12.2638 22.25 11.662 22.1569 11.0879 21.9814V28.3604C11.088 29.1091 11.692 29.7158 12.4375 29.7158H15.7871V24.3008H24.8379V29.7158H28.1875C28.933 29.7158 29.537 29.1091 29.5371 28.3604V21.9004C28.8891 22.1294 28.2004 22.25 27.5 22.25C26.1736 22.25 24.8887 21.8196 23.8438 21.0332ZM9.125 16.2812V16.375C9.125 17.3268 9.51284 18.2455 10.2129 18.9277C10.914 19.6109 11.8711 20 12.875 20C13.8789 20 14.836 19.6109 15.5371 18.9277C15.5924 18.8738 15.6459 18.8184 15.6973 18.7617C15.9105 18.5262 16.2135 18.3916 16.5312 18.3916C16.849 18.3916 17.152 18.5262 17.3652 18.7617C17.4166 18.8184 17.4701 18.8738 17.5254 18.9277C18.2265 19.6109 19.1836 20 20.1875 20C21.1914 20 22.1485 19.6109 22.8496 18.9277C22.9049 18.8738 22.9584 18.8184 23.0098 18.7617C23.223 18.5262 23.526 18.3916 23.8438 18.3916C24.1615 18.3916 24.4645 18.5262 24.6777 18.7617C24.7291 18.8185 24.7826 18.8739 24.8379 18.9277C25.539 19.6109 26.4961 20 27.5 20C28.5039 20 29.461 19.6109 30.1621 18.9277C30.8622 18.2455 31.25 17.3268 31.25 16.375V16.2812H9.125ZM11.6562 11C11.6056 11 11.5763 11.0278 11.5674 11.0449C11.5572 11.0647 11.5464 11.0844 11.5352 11.1035L9.76855 14.0938H30.6064L28.8398 11.1035C28.8286 11.0844 28.8178 11.0647 28.8076 11.0449C28.7987 11.0278 28.7694 11 28.7188 11H11.6562Z" fill="white"/>
</mask>
<g mask="url(#mask0_17_261)">
<rect width="40" height="40" fill="#2F8728"/>
</g>
</svg>
