<svg width="64" height="64" viewBox="0 0 64 64" fill="none" xmlns="http://www.w3.org/2000/svg">
<mask id="mask0_6063_23121" style="mask-type:alpha" maskUnits="userSpaceOnUse" x="16" y="13" width="33" height="38">
<path fill-rule="evenodd" clip-rule="evenodd" d="M37.1006 23.9739V26.7517C37.1006 27.6543 37.8484 28.3292 38.6981 28.3292L38.6981 28.3291L38.713 28.3292C39.5627 28.3292 40.3105 27.6543 40.3105 26.7517V23.9739H42.3568L44.1255 38.0269H19.8775L21.646 23.9739H23.6799V26.7517C23.6799 27.6543 24.4277 28.3292 25.2774 28.3292L25.2923 28.3291L25.2924 28.3292C26.142 28.3292 26.8899 27.6543 26.8899 26.7517V23.9739H37.1006ZM19.4804 41.1819L19.2283 43.1852C19.0817 44.3535 19.4605 45.5377 20.2781 46.4294C21.0956 47.3225 22.2825 47.8434 23.5359 47.8434H40.4671C41.7187 47.8434 42.9065 47.3221 43.726 46.4282C44.5443 45.5372 44.9215 44.3554 44.7747 43.1848L44.5226 41.1819H19.4804ZM31.995 16.1566C34.7546 16.1603 36.9605 18.2573 37.0941 20.8188H26.8963C27.0299 18.2574 29.2355 16.1605 31.995 16.1566ZM23.6837 20.8188H20.2331C19.45 20.8188 18.7531 21.3875 18.6472 22.1979L18.6466 22.2026L16.0553 42.7977C15.7932 44.8873 16.4717 46.9836 17.9061 48.5477C19.3391 50.1116 21.3916 51 23.5344 51H40.4671C42.6098 51 44.6624 50.1116 46.0953 48.5477C47.5295 46.9824 48.2087 44.8862 47.9445 42.7971L45.3533 22.2025C45.2507 21.3876 44.5476 20.8188 43.7668 20.8188H40.3067C40.1719 16.4549 36.4679 13 32.0027 13L31.9952 13L31.9877 13C27.5226 13 23.8185 16.4549 23.6837 20.8188Z" fill="white"/>
</mask>
<g mask="url(#mask0_6063_23121)">
<rect width="64" height="64" fill="#2F8728"/>
</g>
</svg>
