<svg width="40" height="40" viewBox="0 0 40 40" fill="none" xmlns="http://www.w3.org/2000/svg">
<mask id="mask0_17_263" style="mask-type:alpha" maskUnits="userSpaceOnUse" x="8" y="8" width="24" height="24">
<path fill-rule="evenodd" clip-rule="evenodd" d="M28.183 17.4716L20.1429 10.8353C20.0598 10.7668 19.9402 10.7668 19.8571 10.8353L11.817 17.4716L11.5716 17.5827C11.098 17.7972 10.775 18.2731 10.775 18.8204V27.8601C10.775 28.609 11.3794 29.2161 12.125 29.2161H15.475V23.8006H24.525V29.2161H27.875C28.6206 29.2161 29.225 28.609 29.225 27.8601V18.8204C29.225 18.2731 28.902 17.7972 28.4284 17.5827L28.183 17.4716ZM22.5 31.25V25.8345H17.5V31.25H12.125C10.261 31.25 8.75 29.7323 8.75 27.8601V18.8204C8.75 17.4443 9.56642 16.2596 10.7393 15.7285L18.5715 9.26391C19.4017 8.5787 20.5983 8.5787 21.4285 9.26391L29.2607 15.7285C30.4336 16.2596 31.25 17.4443 31.25 18.8204V27.8601C31.25 29.7323 29.739 31.25 27.875 31.25H22.5Z" fill="white"/>
</mask>
<g mask="url(#mask0_17_263)">
<rect width="40" height="40" fill="#2F8728"/>
</g>
</svg>
