<svg width="64" height="64" viewBox="0 0 64 64" fill="none" xmlns="http://www.w3.org/2000/svg">
<mask id="mask0_49_289" style="mask-type:alpha" maskUnits="userSpaceOnUse" x="14" y="13" width="37" height="39">
<path fill-rule="evenodd" clip-rule="evenodd" d="M21 24C23.2091 24 25 22.2091 25 20C25 17.7909 23.2091 16 21 16C18.7909 16 17 17.7909 17 20C17 22.2091 18.7909 24 21 24ZM21 27C24.1581 27 26.8278 24.9086 27.6995 22.0352H49.353C50.1815 22.0352 50.853 21.2767 50.853 20.3411C50.853 19.4055 50.1815 18.647 49.353 18.647H27.8693C27.239 15.4285 24.4031 13 21 13C17.134 13 14 16.134 14 20C14 23.866 17.134 27 21 27ZM39.5 44.7061C39.5 42.4969 41.2909 40.7061 43.5 40.7061C45.7091 40.7061 47.5 42.4969 47.5 44.7061C47.5 46.9152 45.7091 48.7061 43.5 48.7061C41.2909 48.7061 39.5 46.9152 39.5 44.7061ZM36.6376 43.3178C37.2817 40.1168 40.1093 37.7061 43.5 37.7061C47.366 37.7061 50.5 40.8401 50.5 44.7061C50.5 48.572 47.366 51.7061 43.5 51.7061C40.329 51.7061 37.6504 49.5975 36.7899 46.7061L15.5 46.7061C14.6716 46.7061 14 45.9476 14 45.0119C14 44.0763 14.6716 43.3178 15.5 43.3178L36.6376 43.3178ZM49.3531 34.2706H39.1701C38.2983 37.1439 35.6287 39.2353 32.4706 39.2353C29.3125 39.2353 26.6428 37.1439 25.771 34.2705L15.6177 34.2705C14.7893 34.2705 14.1177 33.512 14.1177 32.5764C14.1177 31.6408 14.7893 30.8823 15.6177 30.8823L25.6012 30.8823C26.2315 27.6638 29.0675 25.2353 32.4706 25.2353C35.8737 25.2353 38.7097 27.6638 39.3399 30.8823H49.3531C50.1815 30.8823 50.8531 31.6408 50.8531 32.5764C50.8531 33.5121 50.1815 34.2706 49.3531 34.2706ZM32.4706 36.2353C34.6797 36.2353 36.4706 34.4444 36.4706 32.2353C36.4706 30.0262 34.6797 28.2353 32.4706 28.2353C30.2614 28.2353 28.4706 30.0262 28.4706 32.2353C28.4706 34.4444 30.2614 36.2353 32.4706 36.2353Z" fill="#1A1A1A"/>
</mask>
<g mask="url(#mask0_49_289)">
<rect width="64" height="64" fill="#2F8728"/>
</g>
</svg>
