<svg width="40" height="40" viewBox="0 0 40 40" fill="none" xmlns="http://www.w3.org/2000/svg">
<mask id="mask0_17_262" style="mask-type:alpha" maskUnits="userSpaceOnUse" x="10" y="11" width="20" height="19">
<path d="M11.4177 30C11.0418 30 10.6815 29.8554 10.4157 29.598C10.1499 29.3406 10.0005 28.9914 10.0005 28.6274C9.98936 27.7327 10.173 26.8458 10.5393 26.0244C10.9056 25.2029 11.4464 24.4654 12.1265 23.8598C13.5645 22.5663 15.439 21.8231 17.4008 21.7686C16.4529 21.3056 15.6563 20.5965 15.1005 19.7205C14.5447 18.8444 14.2514 17.836 14.2533 16.8078C14.2546 15.3333 14.8601 13.9196 15.9367 12.8769C17.0132 11.8341 18.4729 11.2476 19.9955 11.246C21.5182 11.2473 22.9783 11.8338 24.055 12.8765C25.1317 13.9193 25.737 15.3332 25.7384 16.8078C25.7402 17.836 25.4469 18.8444 24.8911 19.7205C24.3353 20.5965 23.539 21.3056 22.5911 21.7686C24.5532 21.822 26.428 22.5654 27.8654 23.8598C28.5455 24.4654 29.0863 25.2029 29.4526 26.0244C29.8189 26.8458 30.0026 27.7327 29.9914 28.6274C29.994 28.9831 29.853 29.3257 29.5985 29.5821C29.3439 29.8385 28.9957 29.9885 28.6286 30H11.4177ZM13.5934 25.348C12.8346 26.0139 12.3342 26.9114 12.1759 27.8912L12.168 27.949H27.834C27.6992 27.0161 27.2505 26.1522 26.5574 25.4912L26.4087 25.349C25.2912 24.3571 23.8285 23.8102 22.3128 23.8176H17.7955C16.2431 23.7854 14.7376 24.3335 13.5914 25.348H13.5934ZM16.3783 16.8117C16.3794 17.742 16.7614 18.6339 17.4406 19.2917C18.1199 19.9495 19.0408 20.3195 20.0014 20.3206C20.9622 20.3198 21.8834 19.9499 22.5629 19.2921C23.2424 18.6342 23.6246 17.7422 23.6257 16.8117C23.6246 15.8812 23.2424 14.9891 22.5629 14.3311C21.8835 13.6731 20.9623 13.303 20.0014 13.302C19.0406 13.303 18.1196 13.6731 17.4404 14.3311C16.7611 14.9891 16.3791 15.8813 16.3783 16.8117Z" fill="white"/>
</mask>
<g mask="url(#mask0_17_262)">
<rect width="40" height="40" fill="#2F8728"/>
</g>
</svg>
